<mxfile host="app.diagrams.net" modified="2023-10-05T15:56:01.014Z" agent="Mozilla/5.0 (Windows NT 10.0; Win64; x64) AppleWebKit/537.36 (KHTML, like Gecko) Chrome/117.0.0.0 Safari/537.36" etag="OqwrP8-nPD_W28rcIkva" version="22.0.2" type="device">
  <diagram id="C5RBs43oDa-KdzZeNtuy" name="Page-1">
    <mxGraphModel dx="1947" dy="1615" grid="1" gridSize="10" guides="1" tooltips="1" connect="1" arrows="1" fold="1" page="1" pageScale="1" pageWidth="827" pageHeight="1169" math="0" shadow="0">
      <root>
        <mxCell id="WIyWlLk6GJQsqaUBKTNV-0" />
        <mxCell id="WIyWlLk6GJQsqaUBKTNV-1" parent="WIyWlLk6GJQsqaUBKTNV-0" />
        <mxCell id="eHexfXP3H9wMpKs3qsU0-0" value="Departamento&lt;br&gt;" style="swimlane;fontStyle=1;align=center;verticalAlign=top;childLayout=stackLayout;horizontal=1;startSize=26;horizontalStack=0;resizeParent=1;resizeParentMax=0;resizeLast=0;collapsible=1;marginBottom=0;whiteSpace=wrap;html=1;" parent="WIyWlLk6GJQsqaUBKTNV-1" vertex="1">
          <mxGeometry x="-230" y="-40" width="160" height="100" as="geometry" />
        </mxCell>
        <mxCell id="eHexfXP3H9wMpKs3qsU0-1" value="- String: nome&lt;br&gt;- LocalDate: criacao&lt;br&gt;- String: descricao" style="text;strokeColor=none;fillColor=none;align=left;verticalAlign=top;spacingLeft=4;spacingRight=4;overflow=hidden;rotatable=0;points=[[0,0.5],[1,0.5]];portConstraint=eastwest;whiteSpace=wrap;html=1;" parent="eHexfXP3H9wMpKs3qsU0-0" vertex="1">
          <mxGeometry y="26" width="160" height="64" as="geometry" />
        </mxCell>
        <mxCell id="eHexfXP3H9wMpKs3qsU0-2" value="" style="line;strokeWidth=1;fillColor=none;align=left;verticalAlign=middle;spacingTop=-1;spacingLeft=3;spacingRight=3;rotatable=0;labelPosition=right;points=[];portConstraint=eastwest;strokeColor=inherit;" parent="eHexfXP3H9wMpKs3qsU0-0" vertex="1">
          <mxGeometry y="90" width="160" height="8" as="geometry" />
        </mxCell>
        <mxCell id="eHexfXP3H9wMpKs3qsU0-3" value="+ method(type): type" style="text;strokeColor=none;fillColor=none;align=left;verticalAlign=top;spacingLeft=4;spacingRight=4;overflow=hidden;rotatable=0;points=[[0,0.5],[1,0.5]];portConstraint=eastwest;whiteSpace=wrap;html=1;" parent="eHexfXP3H9wMpKs3qsU0-0" vertex="1">
          <mxGeometry y="98" width="160" height="2" as="geometry" />
        </mxCell>
        <mxCell id="eHexfXP3H9wMpKs3qsU0-4" value="Endereco&lt;br&gt;" style="swimlane;fontStyle=1;align=center;verticalAlign=top;childLayout=stackLayout;horizontal=1;startSize=26;horizontalStack=0;resizeParent=1;resizeParentMax=0;resizeLast=0;collapsible=1;marginBottom=0;whiteSpace=wrap;html=1;" parent="WIyWlLk6GJQsqaUBKTNV-1" vertex="1">
          <mxGeometry x="-235" y="-210" width="160" height="132" as="geometry" />
        </mxCell>
        <mxCell id="eHexfXP3H9wMpKs3qsU0-5" value="- String: pais&lt;br&gt;- String: estado&lt;br&gt;- String: cidade&lt;br&gt;- String : rua&lt;br&gt;- String : numero&lt;br&gt;- String : cep" style="text;strokeColor=none;fillColor=none;align=left;verticalAlign=top;spacingLeft=4;spacingRight=4;overflow=hidden;rotatable=0;points=[[0,0.5],[1,0.5]];portConstraint=eastwest;whiteSpace=wrap;html=1;" parent="eHexfXP3H9wMpKs3qsU0-4" vertex="1">
          <mxGeometry y="26" width="160" height="96" as="geometry" />
        </mxCell>
        <mxCell id="eHexfXP3H9wMpKs3qsU0-6" value="" style="line;strokeWidth=1;fillColor=none;align=left;verticalAlign=middle;spacingTop=-1;spacingLeft=3;spacingRight=3;rotatable=0;labelPosition=right;points=[];portConstraint=eastwest;strokeColor=inherit;" parent="eHexfXP3H9wMpKs3qsU0-4" vertex="1">
          <mxGeometry y="122" width="160" height="8" as="geometry" />
        </mxCell>
        <mxCell id="eHexfXP3H9wMpKs3qsU0-7" value="+ method(type): type" style="text;strokeColor=none;fillColor=none;align=left;verticalAlign=top;spacingLeft=4;spacingRight=4;overflow=hidden;rotatable=0;points=[[0,0.5],[1,0.5]];portConstraint=eastwest;whiteSpace=wrap;html=1;" parent="eHexfXP3H9wMpKs3qsU0-4" vertex="1">
          <mxGeometry y="130" width="160" height="2" as="geometry" />
        </mxCell>
        <mxCell id="eHexfXP3H9wMpKs3qsU0-8" value="Orcamento&lt;br&gt;" style="swimlane;fontStyle=1;align=center;verticalAlign=top;childLayout=stackLayout;horizontal=1;startSize=26;horizontalStack=0;resizeParent=1;resizeParentMax=0;resizeLast=0;collapsible=1;marginBottom=0;whiteSpace=wrap;html=1;" parent="WIyWlLk6GJQsqaUBKTNV-1" vertex="1">
          <mxGeometry x="-210" y="260" width="150" height="90" as="geometry" />
        </mxCell>
        <mxCell id="eHexfXP3H9wMpKs3qsU0-9" value="- LocalDate : ano&lt;br&gt;- BigDecimal: orcamento&lt;br&gt;- BigDecimal: saldo" style="text;strokeColor=none;fillColor=none;align=left;verticalAlign=top;spacingLeft=4;spacingRight=4;overflow=hidden;rotatable=0;points=[[0,0.5],[1,0.5]];portConstraint=eastwest;whiteSpace=wrap;html=1;" parent="eHexfXP3H9wMpKs3qsU0-8" vertex="1">
          <mxGeometry y="26" width="150" height="54" as="geometry" />
        </mxCell>
        <mxCell id="eHexfXP3H9wMpKs3qsU0-10" value="" style="line;strokeWidth=1;fillColor=none;align=left;verticalAlign=middle;spacingTop=-1;spacingLeft=3;spacingRight=3;rotatable=0;labelPosition=right;points=[];portConstraint=eastwest;strokeColor=inherit;" parent="eHexfXP3H9wMpKs3qsU0-8" vertex="1">
          <mxGeometry y="80" width="150" height="8" as="geometry" />
        </mxCell>
        <mxCell id="eHexfXP3H9wMpKs3qsU0-11" value="+ method(type): type" style="text;strokeColor=none;fillColor=none;align=left;verticalAlign=top;spacingLeft=4;spacingRight=4;overflow=hidden;rotatable=0;points=[[0,0.5],[1,0.5]];portConstraint=eastwest;whiteSpace=wrap;html=1;" parent="eHexfXP3H9wMpKs3qsU0-8" vertex="1">
          <mxGeometry y="88" width="150" height="2" as="geometry" />
        </mxCell>
        <mxCell id="eHexfXP3H9wMpKs3qsU0-12" value="Gastos" style="swimlane;fontStyle=1;align=center;verticalAlign=top;childLayout=stackLayout;horizontal=1;startSize=26;horizontalStack=0;resizeParent=1;resizeParentMax=0;resizeLast=0;collapsible=1;marginBottom=0;whiteSpace=wrap;html=1;" parent="WIyWlLk6GJQsqaUBKTNV-1" vertex="1">
          <mxGeometry x="-210" y="120" width="120" height="80" as="geometry" />
        </mxCell>
        <mxCell id="eHexfXP3H9wMpKs3qsU0-13" value="- String: descricao&lt;br&gt;- BigDecimal: valor" style="text;strokeColor=none;fillColor=none;align=left;verticalAlign=top;spacingLeft=4;spacingRight=4;overflow=hidden;rotatable=0;points=[[0,0.5],[1,0.5]];portConstraint=eastwest;whiteSpace=wrap;html=1;" parent="eHexfXP3H9wMpKs3qsU0-12" vertex="1">
          <mxGeometry y="26" width="120" height="44" as="geometry" />
        </mxCell>
        <mxCell id="eHexfXP3H9wMpKs3qsU0-14" value="" style="line;strokeWidth=1;fillColor=none;align=left;verticalAlign=middle;spacingTop=-1;spacingLeft=3;spacingRight=3;rotatable=0;labelPosition=right;points=[];portConstraint=eastwest;strokeColor=inherit;" parent="eHexfXP3H9wMpKs3qsU0-12" vertex="1">
          <mxGeometry y="70" width="120" height="8" as="geometry" />
        </mxCell>
        <mxCell id="eHexfXP3H9wMpKs3qsU0-15" value="+ method(type): type" style="text;strokeColor=none;fillColor=none;align=left;verticalAlign=top;spacingLeft=4;spacingRight=4;overflow=hidden;rotatable=0;points=[[0,0.5],[1,0.5]];portConstraint=eastwest;whiteSpace=wrap;html=1;" parent="eHexfXP3H9wMpKs3qsU0-12" vertex="1">
          <mxGeometry y="78" width="120" height="2" as="geometry" />
        </mxCell>
        <mxCell id="eHexfXP3H9wMpKs3qsU0-16" value="Projeto" style="swimlane;fontStyle=1;align=center;verticalAlign=top;childLayout=stackLayout;horizontal=1;startSize=26;horizontalStack=0;resizeParent=1;resizeParentMax=0;resizeLast=0;collapsible=1;marginBottom=0;whiteSpace=wrap;html=1;" parent="WIyWlLk6GJQsqaUBKTNV-1" vertex="1">
          <mxGeometry x="-440" y="-40" width="120" height="80" as="geometry" />
        </mxCell>
        <mxCell id="eHexfXP3H9wMpKs3qsU0-17" value="- String: nome&lt;br&gt;- String: descricao&lt;br&gt;- BigDecimal : custo" style="text;strokeColor=none;fillColor=none;align=left;verticalAlign=top;spacingLeft=4;spacingRight=4;overflow=hidden;rotatable=0;points=[[0,0.5],[1,0.5]];portConstraint=eastwest;whiteSpace=wrap;html=1;" parent="eHexfXP3H9wMpKs3qsU0-16" vertex="1">
          <mxGeometry y="26" width="120" height="44" as="geometry" />
        </mxCell>
        <mxCell id="eHexfXP3H9wMpKs3qsU0-18" value="" style="line;strokeWidth=1;fillColor=none;align=left;verticalAlign=middle;spacingTop=-1;spacingLeft=3;spacingRight=3;rotatable=0;labelPosition=right;points=[];portConstraint=eastwest;strokeColor=inherit;" parent="eHexfXP3H9wMpKs3qsU0-16" vertex="1">
          <mxGeometry y="70" width="120" height="8" as="geometry" />
        </mxCell>
        <mxCell id="eHexfXP3H9wMpKs3qsU0-19" value="+ method(type): type" style="text;strokeColor=none;fillColor=none;align=left;verticalAlign=top;spacingLeft=4;spacingRight=4;overflow=hidden;rotatable=0;points=[[0,0.5],[1,0.5]];portConstraint=eastwest;whiteSpace=wrap;html=1;" parent="eHexfXP3H9wMpKs3qsU0-16" vertex="1">
          <mxGeometry y="78" width="120" height="2" as="geometry" />
        </mxCell>
        <mxCell id="eHexfXP3H9wMpKs3qsU0-20" value="&lt;p style=&quot;margin:0px;margin-top:4px;text-align:center;text-decoration:underline;&quot;&gt;&lt;b&gt;Status&lt;/b&gt;&lt;/p&gt;&lt;hr&gt;&lt;p style=&quot;margin:0px;margin-left:8px;&quot;&gt;INICIO&lt;/p&gt;&lt;p style=&quot;margin:0px;margin-left:8px;&quot;&gt;PARADO&lt;/p&gt;&lt;p style=&quot;margin:0px;margin-left:8px;&quot;&gt;FIM&lt;br&gt;&lt;br&gt;&lt;/p&gt;" style="verticalAlign=top;align=left;overflow=fill;fontSize=12;fontFamily=Helvetica;html=1;whiteSpace=wrap;" parent="WIyWlLk6GJQsqaUBKTNV-1" vertex="1">
          <mxGeometry x="-430" y="-200" width="80" height="80" as="geometry" />
        </mxCell>
        <mxCell id="eHexfXP3H9wMpKs3qsU0-21" value="&lt;i&gt;Pessoa&lt;/i&gt;" style="swimlane;fontStyle=1;align=center;verticalAlign=top;childLayout=stackLayout;horizontal=1;startSize=26;horizontalStack=0;resizeParent=1;resizeParentMax=0;resizeLast=0;collapsible=1;marginBottom=0;whiteSpace=wrap;html=1;" parent="WIyWlLk6GJQsqaUBKTNV-1" vertex="1">
          <mxGeometry x="50" y="260" width="140" height="90" as="geometry" />
        </mxCell>
        <mxCell id="eHexfXP3H9wMpKs3qsU0-22" value="- String: nome&lt;br&gt;- LocalDate :nascimento&lt;br&gt;- String : sexo" style="text;strokeColor=none;fillColor=none;align=left;verticalAlign=top;spacingLeft=4;spacingRight=4;overflow=hidden;rotatable=0;points=[[0,0.5],[1,0.5]];portConstraint=eastwest;whiteSpace=wrap;html=1;" parent="eHexfXP3H9wMpKs3qsU0-21" vertex="1">
          <mxGeometry y="26" width="140" height="54" as="geometry" />
        </mxCell>
        <mxCell id="eHexfXP3H9wMpKs3qsU0-23" value="" style="line;strokeWidth=1;fillColor=none;align=left;verticalAlign=middle;spacingTop=-1;spacingLeft=3;spacingRight=3;rotatable=0;labelPosition=right;points=[];portConstraint=eastwest;strokeColor=inherit;" parent="eHexfXP3H9wMpKs3qsU0-21" vertex="1">
          <mxGeometry y="80" width="140" height="8" as="geometry" />
        </mxCell>
        <mxCell id="eHexfXP3H9wMpKs3qsU0-24" value="+ method(type): type" style="text;strokeColor=none;fillColor=none;align=left;verticalAlign=top;spacingLeft=4;spacingRight=4;overflow=hidden;rotatable=0;points=[[0,0.5],[1,0.5]];portConstraint=eastwest;whiteSpace=wrap;html=1;" parent="eHexfXP3H9wMpKs3qsU0-21" vertex="1">
          <mxGeometry y="88" width="140" height="2" as="geometry" />
        </mxCell>
        <mxCell id="eHexfXP3H9wMpKs3qsU0-25" value="Funcionario&lt;br&gt;" style="swimlane;fontStyle=1;align=center;verticalAlign=top;childLayout=stackLayout;horizontal=1;startSize=26;horizontalStack=0;resizeParent=1;resizeParentMax=0;resizeLast=0;collapsible=1;marginBottom=0;whiteSpace=wrap;html=1;" parent="WIyWlLk6GJQsqaUBKTNV-1" vertex="1">
          <mxGeometry x="50" y="100" width="160" height="88" as="geometry" />
        </mxCell>
        <mxCell id="eHexfXP3H9wMpKs3qsU0-26" value="- LocalDate: contratacao&lt;br&gt;- BigDecimal: salario&lt;br&gt;" style="text;strokeColor=none;fillColor=none;align=left;verticalAlign=top;spacingLeft=4;spacingRight=4;overflow=hidden;rotatable=0;points=[[0,0.5],[1,0.5]];portConstraint=eastwest;whiteSpace=wrap;html=1;" parent="eHexfXP3H9wMpKs3qsU0-25" vertex="1">
          <mxGeometry y="26" width="160" height="54" as="geometry" />
        </mxCell>
        <mxCell id="eHexfXP3H9wMpKs3qsU0-27" value="" style="line;strokeWidth=1;fillColor=none;align=left;verticalAlign=middle;spacingTop=-1;spacingLeft=3;spacingRight=3;rotatable=0;labelPosition=right;points=[];portConstraint=eastwest;strokeColor=inherit;" parent="eHexfXP3H9wMpKs3qsU0-25" vertex="1">
          <mxGeometry y="80" width="160" height="8" as="geometry" />
        </mxCell>
        <mxCell id="eHexfXP3H9wMpKs3qsU0-29" value="Cargo" style="swimlane;fontStyle=1;align=center;verticalAlign=top;childLayout=stackLayout;horizontal=1;startSize=26;horizontalStack=0;resizeParent=1;resizeParentMax=0;resizeLast=0;collapsible=1;marginBottom=0;whiteSpace=wrap;html=1;" parent="WIyWlLk6GJQsqaUBKTNV-1" vertex="1">
          <mxGeometry x="50" y="-40" width="200" height="100" as="geometry" />
        </mxCell>
        <mxCell id="eHexfXP3H9wMpKs3qsU0-30" value="- String : nome&lt;br&gt;- String: descricao&lt;br&gt;- BigDecimal: salarioBase&lt;br&gt;- bigDecimal : salarioMaximo" style="text;strokeColor=none;fillColor=none;align=left;verticalAlign=top;spacingLeft=4;spacingRight=4;overflow=hidden;rotatable=0;points=[[0,0.5],[1,0.5]];portConstraint=eastwest;whiteSpace=wrap;html=1;" parent="eHexfXP3H9wMpKs3qsU0-29" vertex="1">
          <mxGeometry y="26" width="200" height="64" as="geometry" />
        </mxCell>
        <mxCell id="eHexfXP3H9wMpKs3qsU0-31" value="" style="line;strokeWidth=1;fillColor=none;align=left;verticalAlign=middle;spacingTop=-1;spacingLeft=3;spacingRight=3;rotatable=0;labelPosition=right;points=[];portConstraint=eastwest;strokeColor=inherit;" parent="eHexfXP3H9wMpKs3qsU0-29" vertex="1">
          <mxGeometry y="90" width="200" height="8" as="geometry" />
        </mxCell>
        <mxCell id="eHexfXP3H9wMpKs3qsU0-32" value="+ method(type): type" style="text;strokeColor=none;fillColor=none;align=left;verticalAlign=top;spacingLeft=4;spacingRight=4;overflow=hidden;rotatable=0;points=[[0,0.5],[1,0.5]];portConstraint=eastwest;whiteSpace=wrap;html=1;" parent="eHexfXP3H9wMpKs3qsU0-29" vertex="1">
          <mxGeometry y="98" width="200" height="2" as="geometry" />
        </mxCell>
        <mxCell id="eHexfXP3H9wMpKs3qsU0-33" value="&lt;p style=&quot;margin:0px;margin-top:4px;text-align:center;text-decoration:underline;&quot;&gt;&lt;b&gt;PROFISSAO&lt;/b&gt;&lt;/p&gt;&lt;hr&gt;&lt;p style=&quot;margin:0px;margin-left:8px;&quot;&gt;DESENVOLVEDOR_SOFTWARE&lt;/p&gt;&lt;p style=&quot;margin:0px;margin-left:8px;&quot;&gt;MARKINTING&lt;/p&gt;&lt;p style=&quot;margin:0px;margin-left:8px;&quot;&gt;GERENTE_PROJETO&lt;/p&gt;&lt;p style=&quot;margin:0px;margin-left:8px;&quot;&gt;RH&lt;/p&gt;&lt;p style=&quot;margin:0px;margin-left:8px;&quot;&gt;VENDAS&lt;/p&gt;&lt;p style=&quot;margin:0px;margin-left:8px;&quot;&gt;COMPRAS&lt;/p&gt;&lt;p style=&quot;margin:0px;margin-left:8px;&quot;&gt;&lt;br&gt;&lt;/p&gt;" style="verticalAlign=top;align=left;overflow=fill;fontSize=12;fontFamily=Helvetica;html=1;whiteSpace=wrap;" parent="WIyWlLk6GJQsqaUBKTNV-1" vertex="1">
          <mxGeometry x="320" y="180" width="200" height="120" as="geometry" />
        </mxCell>
        <mxCell id="eHexfXP3H9wMpKs3qsU0-37" value="Extends" style="endArrow=block;endSize=16;endFill=0;html=1;rounded=0;entryX=0.5;entryY=0;entryDx=0;entryDy=0;" parent="WIyWlLk6GJQsqaUBKTNV-1" target="eHexfXP3H9wMpKs3qsU0-21" edge="1">
          <mxGeometry width="160" relative="1" as="geometry">
            <mxPoint x="118" y="190" as="sourcePoint" />
            <mxPoint x="10" y="140" as="targetPoint" />
          </mxGeometry>
        </mxCell>
        <mxCell id="eHexfXP3H9wMpKs3qsU0-46" value="" style="endArrow=none;html=1;edgeStyle=orthogonalEdgeStyle;rounded=0;exitX=0.381;exitY=0.02;exitDx=0;exitDy=0;exitPerimeter=0;" parent="WIyWlLk6GJQsqaUBKTNV-1" source="eHexfXP3H9wMpKs3qsU0-0" edge="1">
          <mxGeometry relative="1" as="geometry">
            <mxPoint x="-151" y="-40" as="sourcePoint" />
            <mxPoint x="-169" y="-77" as="targetPoint" />
            <Array as="points">
              <mxPoint x="-169" y="-77" />
            </Array>
          </mxGeometry>
        </mxCell>
        <mxCell id="eHexfXP3H9wMpKs3qsU0-54" value="" style="endArrow=none;html=1;edgeStyle=orthogonalEdgeStyle;rounded=0;entryX=0;entryY=0.278;entryDx=0;entryDy=0;entryPerimeter=0;exitX=1.013;exitY=0.257;exitDx=0;exitDy=0;exitPerimeter=0;" parent="WIyWlLk6GJQsqaUBKTNV-1" edge="1">
          <mxGeometry relative="1" as="geometry">
            <mxPoint x="-67.92000000000007" y="7.008000000000038" as="sourcePoint" />
            <mxPoint x="50" y="3.0019999999999527" as="targetPoint" />
            <Array as="points">
              <mxPoint x="-8" y="8" />
              <mxPoint x="51" y="8" />
            </Array>
          </mxGeometry>
        </mxCell>
        <mxCell id="eHexfXP3H9wMpKs3qsU0-57" value="1..*" style="text;html=1;align=center;verticalAlign=middle;resizable=0;points=[];autosize=1;strokeColor=none;fillColor=none;" parent="WIyWlLk6GJQsqaUBKTNV-1" vertex="1">
          <mxGeometry x="10" y="-22" width="40" height="30" as="geometry" />
        </mxCell>
        <mxCell id="eHexfXP3H9wMpKs3qsU0-58" value="1" style="text;html=1;align=center;verticalAlign=middle;resizable=0;points=[];autosize=1;strokeColor=none;fillColor=none;" parent="WIyWlLk6GJQsqaUBKTNV-1" vertex="1">
          <mxGeometry x="-75" y="-22" width="30" height="30" as="geometry" />
        </mxCell>
        <mxCell id="eHexfXP3H9wMpKs3qsU0-62" value="" style="endArrow=none;html=1;edgeStyle=orthogonalEdgeStyle;rounded=0;entryX=0.5;entryY=0;entryDx=0;entryDy=0;" parent="WIyWlLk6GJQsqaUBKTNV-1" target="eHexfXP3H9wMpKs3qsU0-25" edge="1">
          <mxGeometry relative="1" as="geometry">
            <mxPoint x="130" y="70" as="sourcePoint" />
            <mxPoint x="10" y="120" as="targetPoint" />
            <Array as="points">
              <mxPoint x="130" y="54" />
            </Array>
          </mxGeometry>
        </mxCell>
        <mxCell id="eHexfXP3H9wMpKs3qsU0-65" value="1..*&lt;br&gt;" style="text;html=1;align=center;verticalAlign=middle;resizable=0;points=[];autosize=1;strokeColor=none;fillColor=none;" parent="WIyWlLk6GJQsqaUBKTNV-1" vertex="1">
          <mxGeometry x="125" y="80" width="40" height="30" as="geometry" />
        </mxCell>
        <mxCell id="kp1k-35dx3eQiT--pX-n-0" value="" style="endArrow=none;html=1;rounded=0;entryX=-0.01;entryY=0.363;entryDx=0;entryDy=0;entryPerimeter=0;" parent="WIyWlLk6GJQsqaUBKTNV-1" target="eHexfXP3H9wMpKs3qsU0-33" edge="1">
          <mxGeometry width="50" height="50" relative="1" as="geometry">
            <mxPoint x="214" y="178" as="sourcePoint" />
            <mxPoint x="40" y="120" as="targetPoint" />
          </mxGeometry>
        </mxCell>
        <mxCell id="kp1k-35dx3eQiT--pX-n-3" value="" style="endArrow=none;html=1;rounded=0;exitX=0.408;exitY=-0.011;exitDx=0;exitDy=0;exitPerimeter=0;entryX=0.025;entryY=-0.033;entryDx=0;entryDy=0;entryPerimeter=0;" parent="WIyWlLk6GJQsqaUBKTNV-1" source="eHexfXP3H9wMpKs3qsU0-8" target="kp1k-35dx3eQiT--pX-n-4" edge="1">
          <mxGeometry width="50" height="50" relative="1" as="geometry">
            <mxPoint x="-10" y="180" as="sourcePoint" />
            <mxPoint x="-161" y="200" as="targetPoint" />
          </mxGeometry>
        </mxCell>
        <mxCell id="kp1k-35dx3eQiT--pX-n-4" value="1..*" style="text;html=1;align=center;verticalAlign=middle;resizable=0;points=[];autosize=1;strokeColor=none;fillColor=none;" parent="WIyWlLk6GJQsqaUBKTNV-1" vertex="1">
          <mxGeometry x="-150" y="200" width="40" height="30" as="geometry" />
        </mxCell>
        <mxCell id="kp1k-35dx3eQiT--pX-n-7" value="1&lt;br&gt;" style="text;html=1;align=center;verticalAlign=middle;resizable=0;points=[];autosize=1;strokeColor=none;fillColor=none;" parent="WIyWlLk6GJQsqaUBKTNV-1" vertex="1">
          <mxGeometry x="-150" y="230" width="30" height="30" as="geometry" />
        </mxCell>
        <mxCell id="kp1k-35dx3eQiT--pX-n-8" value="1&lt;br&gt;" style="text;html=1;align=center;verticalAlign=middle;resizable=0;points=[];autosize=1;strokeColor=none;fillColor=none;" parent="WIyWlLk6GJQsqaUBKTNV-1" vertex="1">
          <mxGeometry x="100" y="58" width="30" height="30" as="geometry" />
        </mxCell>
        <mxCell id="kp1k-35dx3eQiT--pX-n-10" value="" style="endArrow=none;html=1;rounded=0;entryX=-0.037;entryY=0.149;entryDx=0;entryDy=0;entryPerimeter=0;" parent="WIyWlLk6GJQsqaUBKTNV-1" target="eHexfXP3H9wMpKs3qsU0-1" edge="1">
          <mxGeometry width="50" height="50" relative="1" as="geometry">
            <mxPoint x="-320" y="-3" as="sourcePoint" />
            <mxPoint x="40" y="130" as="targetPoint" />
          </mxGeometry>
        </mxCell>
        <mxCell id="kp1k-35dx3eQiT--pX-n-13" value="0..*" style="text;html=1;align=center;verticalAlign=middle;resizable=0;points=[];autosize=1;strokeColor=none;fillColor=none;" parent="WIyWlLk6GJQsqaUBKTNV-1" vertex="1">
          <mxGeometry x="-320" y="-32" width="40" height="30" as="geometry" />
        </mxCell>
        <mxCell id="kp1k-35dx3eQiT--pX-n-14" value="1&lt;br&gt;" style="text;html=1;align=center;verticalAlign=middle;resizable=0;points=[];autosize=1;strokeColor=none;fillColor=none;" parent="WIyWlLk6GJQsqaUBKTNV-1" vertex="1">
          <mxGeometry x="-265" y="-32" width="30" height="30" as="geometry" />
        </mxCell>
        <mxCell id="kp1k-35dx3eQiT--pX-n-16" value="" style="endArrow=none;html=1;rounded=0;exitX=0.375;exitY=0.988;exitDx=0;exitDy=0;exitPerimeter=0;" parent="WIyWlLk6GJQsqaUBKTNV-1" source="eHexfXP3H9wMpKs3qsU0-20" edge="1">
          <mxGeometry width="50" height="50" relative="1" as="geometry">
            <mxPoint x="-390" y="120" as="sourcePoint" />
            <mxPoint x="-400" y="-40" as="targetPoint" />
          </mxGeometry>
        </mxCell>
        <mxCell id="kp1k-35dx3eQiT--pX-n-19" value="" style="endArrow=none;html=1;rounded=0;entryX=0;entryY=0.5;entryDx=0;entryDy=0;" parent="WIyWlLk6GJQsqaUBKTNV-1" target="eHexfXP3H9wMpKs3qsU0-26" edge="1">
          <mxGeometry width="50" height="50" relative="1" as="geometry">
            <mxPoint x="-90" y="153" as="sourcePoint" />
            <mxPoint x="40" y="70" as="targetPoint" />
          </mxGeometry>
        </mxCell>
        <mxCell id="kp1k-35dx3eQiT--pX-n-20" value="1..*" style="text;html=1;align=center;verticalAlign=middle;resizable=0;points=[];autosize=1;strokeColor=none;fillColor=none;" parent="WIyWlLk6GJQsqaUBKTNV-1" vertex="1">
          <mxGeometry x="10" y="125" width="40" height="30" as="geometry" />
        </mxCell>
        <mxCell id="kp1k-35dx3eQiT--pX-n-21" value="1" style="text;html=1;align=center;verticalAlign=middle;resizable=0;points=[];autosize=1;strokeColor=none;fillColor=none;" parent="WIyWlLk6GJQsqaUBKTNV-1" vertex="1">
          <mxGeometry x="-90" y="125" width="30" height="30" as="geometry" />
        </mxCell>
        <mxCell id="kp1k-35dx3eQiT--pX-n-23" value="" style="endArrow=none;html=1;rounded=0;entryX=0.333;entryY=1;entryDx=0;entryDy=0;entryPerimeter=0;exitX=0;exitY=0.5;exitDx=0;exitDy=0;" parent="WIyWlLk6GJQsqaUBKTNV-1" source="eHexfXP3H9wMpKs3qsU0-13" target="eHexfXP3H9wMpKs3qsU0-19" edge="1">
          <mxGeometry width="50" height="50" relative="1" as="geometry">
            <mxPoint x="-10" y="130" as="sourcePoint" />
            <mxPoint x="40" y="80" as="targetPoint" />
            <Array as="points">
              <mxPoint x="-399" y="168" />
            </Array>
          </mxGeometry>
        </mxCell>
        <mxCell id="kp1k-35dx3eQiT--pX-n-24" value="0..*" style="text;html=1;align=center;verticalAlign=middle;resizable=0;points=[];autosize=1;strokeColor=none;fillColor=none;" parent="WIyWlLk6GJQsqaUBKTNV-1" vertex="1">
          <mxGeometry x="-260" y="140" width="40" height="30" as="geometry" />
        </mxCell>
        <mxCell id="kp1k-35dx3eQiT--pX-n-25" value="1" style="text;html=1;align=center;verticalAlign=middle;resizable=0;points=[];autosize=1;strokeColor=none;fillColor=none;" parent="WIyWlLk6GJQsqaUBKTNV-1" vertex="1">
          <mxGeometry x="-405" y="38" width="30" height="30" as="geometry" />
        </mxCell>
        <mxCell id="kp1k-35dx3eQiT--pX-n-26" value="Telefone" style="swimlane;fontStyle=1;align=center;verticalAlign=top;childLayout=stackLayout;horizontal=1;startSize=26;horizontalStack=0;resizeParent=1;resizeParentMax=0;resizeLast=0;collapsible=1;marginBottom=0;whiteSpace=wrap;html=1;" parent="WIyWlLk6GJQsqaUBKTNV-1" vertex="1">
          <mxGeometry x="-420" y="380" width="160" height="88" as="geometry" />
        </mxCell>
        <mxCell id="kp1k-35dx3eQiT--pX-n-27" value="- String: ddd&lt;br&gt;- String ddi&lt;br&gt;- String: telefone" style="text;strokeColor=none;fillColor=none;align=left;verticalAlign=top;spacingLeft=4;spacingRight=4;overflow=hidden;rotatable=0;points=[[0,0.5],[1,0.5]];portConstraint=eastwest;whiteSpace=wrap;html=1;" parent="kp1k-35dx3eQiT--pX-n-26" vertex="1">
          <mxGeometry y="26" width="160" height="54" as="geometry" />
        </mxCell>
        <mxCell id="kp1k-35dx3eQiT--pX-n-28" value="" style="line;strokeWidth=1;fillColor=none;align=left;verticalAlign=middle;spacingTop=-1;spacingLeft=3;spacingRight=3;rotatable=0;labelPosition=right;points=[];portConstraint=eastwest;strokeColor=inherit;" parent="kp1k-35dx3eQiT--pX-n-26" vertex="1">
          <mxGeometry y="80" width="160" height="8" as="geometry" />
        </mxCell>
        <mxCell id="kp1k-35dx3eQiT--pX-n-34" value="" style="endArrow=none;html=1;rounded=0;entryX=1.013;entryY=0.667;entryDx=0;entryDy=0;entryPerimeter=0;exitX=0;exitY=0.5;exitDx=0;exitDy=0;" parent="WIyWlLk6GJQsqaUBKTNV-1" source="eHexfXP3H9wMpKs3qsU0-24" target="kp1k-35dx3eQiT--pX-n-27" edge="1">
          <mxGeometry width="50" height="50" relative="1" as="geometry">
            <mxPoint x="190" y="350" as="sourcePoint" />
            <mxPoint x="300" y="313" as="targetPoint" />
          </mxGeometry>
        </mxCell>
        <mxCell id="kp1k-35dx3eQiT--pX-n-35" value="Cpf" style="swimlane;fontStyle=1;align=center;verticalAlign=top;childLayout=stackLayout;horizontal=1;startSize=26;horizontalStack=0;resizeParent=1;resizeParentMax=0;resizeLast=0;collapsible=1;marginBottom=0;whiteSpace=wrap;html=1;" parent="WIyWlLk6GJQsqaUBKTNV-1" vertex="1">
          <mxGeometry x="50" y="400" width="140" height="60" as="geometry" />
        </mxCell>
        <mxCell id="kp1k-35dx3eQiT--pX-n-36" value="- String: cpf" style="text;strokeColor=none;fillColor=none;align=left;verticalAlign=top;spacingLeft=4;spacingRight=4;overflow=hidden;rotatable=0;points=[[0,0.5],[1,0.5]];portConstraint=eastwest;whiteSpace=wrap;html=1;" parent="kp1k-35dx3eQiT--pX-n-35" vertex="1">
          <mxGeometry y="26" width="140" height="24" as="geometry" />
        </mxCell>
        <mxCell id="kp1k-35dx3eQiT--pX-n-37" value="" style="line;strokeWidth=1;fillColor=none;align=left;verticalAlign=middle;spacingTop=-1;spacingLeft=3;spacingRight=3;rotatable=0;labelPosition=right;points=[];portConstraint=eastwest;strokeColor=inherit;" parent="kp1k-35dx3eQiT--pX-n-35" vertex="1">
          <mxGeometry y="50" width="140" height="8" as="geometry" />
        </mxCell>
        <mxCell id="kp1k-35dx3eQiT--pX-n-38" value="+ method(type): type" style="text;strokeColor=none;fillColor=none;align=left;verticalAlign=top;spacingLeft=4;spacingRight=4;overflow=hidden;rotatable=0;points=[[0,0.5],[1,0.5]];portConstraint=eastwest;whiteSpace=wrap;html=1;" parent="kp1k-35dx3eQiT--pX-n-35" vertex="1">
          <mxGeometry y="58" width="140" height="2" as="geometry" />
        </mxCell>
        <mxCell id="kp1k-35dx3eQiT--pX-n-39" value="" style="endArrow=none;html=1;rounded=0;exitX=0.5;exitY=0;exitDx=0;exitDy=0;" parent="WIyWlLk6GJQsqaUBKTNV-1" source="kp1k-35dx3eQiT--pX-n-35" edge="1">
          <mxGeometry width="50" height="50" relative="1" as="geometry">
            <mxPoint x="-10" y="330" as="sourcePoint" />
            <mxPoint x="120" y="350" as="targetPoint" />
          </mxGeometry>
        </mxCell>
        <mxCell id="pN_A8Vao5rNuKBs17xrK-0" value="&lt;p style=&quot;margin:0px;margin-top:4px;text-align:center;text-decoration:underline;&quot;&gt;&lt;b&gt;Nivel Profissional&lt;/b&gt;&lt;/p&gt;&lt;hr&gt;&lt;p style=&quot;margin:0px;margin-left:8px;&quot;&gt;&lt;span style=&quot;background-color: initial;&quot;&gt;ESTAGIARIO&lt;/span&gt;&lt;/p&gt;&lt;p style=&quot;margin:0px;margin-left:8px;&quot;&gt;&lt;span style=&quot;background-color: initial;&quot;&gt;JUNIOR&lt;/span&gt;&lt;/p&gt;&lt;p style=&quot;margin:0px;margin-left:8px;&quot;&gt;PLENO&lt;/p&gt;&lt;p style=&quot;margin:0px;margin-left:8px;&quot;&gt;SENIOR&lt;/p&gt;&lt;p style=&quot;margin:0px;margin-left:8px;&quot;&gt;GERENTE&lt;/p&gt;&lt;p style=&quot;margin:0px;margin-left:8px;&quot;&gt;&lt;br&gt;&lt;/p&gt;" style="verticalAlign=top;align=left;overflow=fill;fontSize=12;fontFamily=Helvetica;html=1;whiteSpace=wrap;" parent="WIyWlLk6GJQsqaUBKTNV-1" vertex="1">
          <mxGeometry x="380" y="-110" width="110" height="110" as="geometry" />
        </mxCell>
        <mxCell id="pN_A8Vao5rNuKBs17xrK-1" value="" style="endArrow=none;html=1;rounded=0;exitX=1.005;exitY=-0.062;exitDx=0;exitDy=0;entryX=0;entryY=0.836;entryDx=0;entryDy=0;entryPerimeter=0;exitPerimeter=0;" parent="WIyWlLk6GJQsqaUBKTNV-1" source="eHexfXP3H9wMpKs3qsU0-30" target="pN_A8Vao5rNuKBs17xrK-0" edge="1">
          <mxGeometry width="50" height="50" relative="1" as="geometry">
            <mxPoint x="70" y="140" as="sourcePoint" />
            <mxPoint x="130" y="-120" as="targetPoint" />
          </mxGeometry>
        </mxCell>
        <mxCell id="pN_A8Vao5rNuKBs17xrK-6" value="ReajusteSalarialCargo" style="swimlane;fontStyle=1;align=center;verticalAlign=top;childLayout=stackLayout;horizontal=1;startSize=26;horizontalStack=0;resizeParent=1;resizeParentMax=0;resizeLast=0;collapsible=1;marginBottom=0;whiteSpace=wrap;html=1;" parent="WIyWlLk6GJQsqaUBKTNV-1" vertex="1">
          <mxGeometry x="320" y="70" width="240" height="78" as="geometry">
            <mxRectangle x="10" y="70" width="140" height="30" as="alternateBounds" />
          </mxGeometry>
        </mxCell>
        <mxCell id="pN_A8Vao5rNuKBs17xrK-7" value="- BigDecimal: valorReajuste&lt;br&gt;- LocalDate: diaReajuste" style="text;strokeColor=none;fillColor=none;align=left;verticalAlign=top;spacingLeft=4;spacingRight=4;overflow=hidden;rotatable=0;points=[[0,0.5],[1,0.5]];portConstraint=eastwest;whiteSpace=wrap;html=1;" parent="pN_A8Vao5rNuKBs17xrK-6" vertex="1">
          <mxGeometry y="26" width="240" height="44" as="geometry" />
        </mxCell>
        <mxCell id="pN_A8Vao5rNuKBs17xrK-8" value="" style="line;strokeWidth=1;fillColor=none;align=left;verticalAlign=middle;spacingTop=-1;spacingLeft=3;spacingRight=3;rotatable=0;labelPosition=right;points=[];portConstraint=eastwest;strokeColor=inherit;" parent="pN_A8Vao5rNuKBs17xrK-6" vertex="1">
          <mxGeometry y="70" width="240" height="8" as="geometry" />
        </mxCell>
        <mxCell id="pN_A8Vao5rNuKBs17xrK-9" value="" style="endArrow=none;html=1;edgeStyle=orthogonalEdgeStyle;rounded=0;exitX=1.013;exitY=0.148;exitDx=0;exitDy=0;exitPerimeter=0;" parent="WIyWlLk6GJQsqaUBKTNV-1" source="eHexfXP3H9wMpKs3qsU0-25" edge="1">
          <mxGeometry relative="1" as="geometry">
            <mxPoint x="10" y="110" as="sourcePoint" />
            <mxPoint x="319" y="113" as="targetPoint" />
          </mxGeometry>
        </mxCell>
        <mxCell id="pN_A8Vao5rNuKBs17xrK-12" value="0..*" style="text;html=1;align=center;verticalAlign=middle;resizable=0;points=[];autosize=1;strokeColor=none;fillColor=none;" parent="WIyWlLk6GJQsqaUBKTNV-1" vertex="1">
          <mxGeometry x="285" y="90" width="40" height="30" as="geometry" />
        </mxCell>
        <mxCell id="pN_A8Vao5rNuKBs17xrK-13" value="1" style="text;html=1;align=center;verticalAlign=middle;resizable=0;points=[];autosize=1;strokeColor=none;fillColor=none;" parent="WIyWlLk6GJQsqaUBKTNV-1" vertex="1">
          <mxGeometry x="205" y="88" width="30" height="30" as="geometry" />
        </mxCell>
        <mxCell id="BM9GZISg4jxVqDojw0wy-0" value="Email" style="swimlane;fontStyle=1;align=center;verticalAlign=top;childLayout=stackLayout;horizontal=1;startSize=26;horizontalStack=0;resizeParent=1;resizeParentMax=0;resizeLast=0;collapsible=1;marginBottom=0;whiteSpace=wrap;html=1;" parent="WIyWlLk6GJQsqaUBKTNV-1" vertex="1">
          <mxGeometry x="70" y="-210" width="160" height="58" as="geometry" />
        </mxCell>
        <mxCell id="BM9GZISg4jxVqDojw0wy-1" value="- String : Email" style="text;strokeColor=none;fillColor=none;align=left;verticalAlign=top;spacingLeft=4;spacingRight=4;overflow=hidden;rotatable=0;points=[[0,0.5],[1,0.5]];portConstraint=eastwest;whiteSpace=wrap;html=1;" parent="BM9GZISg4jxVqDojw0wy-0" vertex="1">
          <mxGeometry y="26" width="160" height="24" as="geometry" />
        </mxCell>
        <mxCell id="BM9GZISg4jxVqDojw0wy-2" value="" style="line;strokeWidth=1;fillColor=none;align=left;verticalAlign=middle;spacingTop=-1;spacingLeft=3;spacingRight=3;rotatable=0;labelPosition=right;points=[];portConstraint=eastwest;strokeColor=inherit;" parent="BM9GZISg4jxVqDojw0wy-0" vertex="1">
          <mxGeometry y="50" width="160" height="8" as="geometry" />
        </mxCell>
        <mxCell id="BM9GZISg4jxVqDojw0wy-3" value="" style="endArrow=none;html=1;rounded=0;exitX=1;exitY=0.25;exitDx=0;exitDy=0;" parent="WIyWlLk6GJQsqaUBKTNV-1" source="eHexfXP3H9wMpKs3qsU0-21" edge="1">
          <mxGeometry width="50" height="50" relative="1" as="geometry">
            <mxPoint x="30" y="320" as="sourcePoint" />
            <mxPoint x="210" y="-150" as="targetPoint" />
            <Array as="points">
              <mxPoint x="280" y="50" />
              <mxPoint x="280" y="-100" />
            </Array>
          </mxGeometry>
        </mxCell>
        <mxCell id="BM9GZISg4jxVqDojw0wy-6" value="" style="endArrow=none;html=1;rounded=0;entryX=0;entryY=0;entryDx=0;entryDy=0;" parent="WIyWlLk6GJQsqaUBKTNV-1" target="BM9GZISg4jxVqDojw0wy-0" edge="1">
          <mxGeometry width="50" height="50" relative="1" as="geometry">
            <mxPoint x="-66" y="-33" as="sourcePoint" />
            <mxPoint x="80" y="-50" as="targetPoint" />
          </mxGeometry>
        </mxCell>
        <mxCell id="BM9GZISg4jxVqDojw0wy-8" value="" style="endArrow=none;html=1;rounded=0;exitX=0.394;exitY=-0.011;exitDx=0;exitDy=0;exitPerimeter=0;entryX=0;entryY=0.5;entryDx=0;entryDy=0;" parent="WIyWlLk6GJQsqaUBKTNV-1" source="kp1k-35dx3eQiT--pX-n-26" target="eHexfXP3H9wMpKs3qsU0-1" edge="1">
          <mxGeometry width="50" height="50" relative="1" as="geometry">
            <mxPoint x="30" y="300" as="sourcePoint" />
            <mxPoint x="80" y="250" as="targetPoint" />
          </mxGeometry>
        </mxCell>
        <mxCell id="VIG5PaNtGBNEWM2tOmXL-3" value="" style="endArrow=none;html=1;rounded=0;exitX=1;exitY=0.5;exitDx=0;exitDy=0;entryX=0.5;entryY=0;entryDx=0;entryDy=0;" parent="WIyWlLk6GJQsqaUBKTNV-1" source="eHexfXP3H9wMpKs3qsU0-30" target="pN_A8Vao5rNuKBs17xrK-6" edge="1">
          <mxGeometry width="50" height="50" relative="1" as="geometry">
            <mxPoint x="350" y="70" as="sourcePoint" />
            <mxPoint x="450" y="60" as="targetPoint" />
          </mxGeometry>
        </mxCell>
      </root>
    </mxGraphModel>
  </diagram>
</mxfile>
